<?xml version="1.0"?><svg fill="#7d5fff" xmlns="http://www.w3.org/2000/svg"  viewBox="0 0 50 50" width="500px" height="500px">    <path d="M 25 2 C 20.78 2 16.829687 3.1408594 13.429688 5.1308594 L 34.150391 20.269531 L 38.800781 6.609375 C 34.950781 3.719375 30.17 2 25 2 z M 11.640625 6.2890625 C 5.810625 10.459063 2 17.3 2 25 C 2 26.73 2.1903125 28.419063 2.5703125 30.039062 L 23.310547 14.820312 L 11.640625 6.2890625 z M 40.449219 7.9707031 L 32.269531 32 L 46.900391 32 C 47.620391 29.79 48 27.44 48 25 C 48 18.26 45.079219 12.190703 40.449219 7.9707031 z M 25 16.060547 L 16.560547 22.25 L 19.710938 32 L 30.160156 32 L 33.480469 22.25 L 25 16.060547 z M 14.869141 23.5 L 3.1308594 32.109375 C 5.9008594 40.629375 13.530703 46.980625 22.720703 47.890625 L 14.869141 23.5 z M 20.349609 34 L 24.869141 48 L 25 48 C 34.49 48 42.650156 42.22 46.160156 34 L 20.349609 34 z"/></svg>